<svg width="125" height="105" viewBox="0 0 125 105" fill="none" xmlns="http://www.w3.org/2000/svg">
<g opacity="0.1">
<mask id="path-1-inside-1_1115_1111" fill="white">
<path d="M97 48.5C97 75.2858 75.2858 97 48.5 97C21.7142 97 0 75.2858 0 48.5C0 21.7142 21.7142 0 48.5 0C75.2858 0 97 21.7142 97 48.5ZM0.755383 48.5C0.755383 74.8686 22.1314 96.2446 48.5 96.2446C74.8686 96.2446 96.2446 74.8686 96.2446 48.5C96.2446 22.1314 74.8686 0.755383 48.5 0.755383C22.1314 0.755383 0.755383 22.1314 0.755383 48.5Z"/>
</mask>
<path d="M97 48.5C97 75.2858 75.2858 97 48.5 97C21.7142 97 0 75.2858 0 48.5C0 21.7142 21.7142 0 48.5 0C75.2858 0 97 21.7142 97 48.5ZM0.755383 48.5C0.755383 74.8686 22.1314 96.2446 48.5 96.2446C74.8686 96.2446 96.2446 74.8686 96.2446 48.5C96.2446 22.1314 74.8686 0.755383 48.5 0.755383C22.1314 0.755383 0.755383 22.1314 0.755383 48.5Z" fill="#D9D9D9" stroke="white" stroke-width="2" mask="url(#path-1-inside-1_1115_1111)"/>
</g>
<g opacity="0.1">
<mask id="path-2-inside-2_1115_1111" fill="white">
<path d="M104 52.5C104 79.2858 82.2858 101 55.5 101C28.7142 101 7 79.2858 7 52.5C7 25.7142 28.7142 4 55.5 4C82.2858 4 104 25.7142 104 52.5ZM7.75538 52.5C7.75538 78.8686 29.1314 100.245 55.5 100.245C81.8686 100.245 103.245 78.8686 103.245 52.5C103.245 26.1314 81.8686 4.75538 55.5 4.75538C29.1314 4.75538 7.75538 26.1314 7.75538 52.5Z"/>
</mask>
<path d="M104 52.5C104 79.2858 82.2858 101 55.5 101C28.7142 101 7 79.2858 7 52.5C7 25.7142 28.7142 4 55.5 4C82.2858 4 104 25.7142 104 52.5ZM7.75538 52.5C7.75538 78.8686 29.1314 100.245 55.5 100.245C81.8686 100.245 103.245 78.8686 103.245 52.5C103.245 26.1314 81.8686 4.75538 55.5 4.75538C29.1314 4.75538 7.75538 26.1314 7.75538 52.5Z" fill="#D9D9D9" stroke="white" stroke-width="2" mask="url(#path-2-inside-2_1115_1111)"/>
</g>
<g opacity="0.1">
<mask id="path-3-inside-3_1115_1111" fill="white">
<path d="M125 56.5C125 83.2858 103.286 105 76.5 105C49.7142 105 28 83.2858 28 56.5C28 29.7142 49.7142 8 76.5 8C103.286 8 125 29.7142 125 56.5ZM28.7554 56.5C28.7554 82.8686 50.1314 104.245 76.5 104.245C102.869 104.245 124.245 82.8686 124.245 56.5C124.245 30.1314 102.869 8.75538 76.5 8.75538C50.1314 8.75538 28.7554 30.1314 28.7554 56.5Z"/>
</mask>
<path d="M125 56.5C125 83.2858 103.286 105 76.5 105C49.7142 105 28 83.2858 28 56.5C28 29.7142 49.7142 8 76.5 8C103.286 8 125 29.7142 125 56.5ZM28.7554 56.5C28.7554 82.8686 50.1314 104.245 76.5 104.245C102.869 104.245 124.245 82.8686 124.245 56.5C124.245 30.1314 102.869 8.75538 76.5 8.75538C50.1314 8.75538 28.7554 30.1314 28.7554 56.5Z" fill="#D9D9D9" stroke="white" stroke-width="2" mask="url(#path-3-inside-3_1115_1111)"/>
</g>
</svg>
